<?xml version="1.0" encoding="utf-8"?>
<!-- Generator: Adobe Illustrator 25.4.1, SVG Export Plug-In . SVG Version: 6.00 Build 0)  -->
<svg version="1.1" id="Layer_1" xmlns="http://www.w3.org/2000/svg" xmlns:xlink="http://www.w3.org/1999/xlink" x="0px" y="0px"
	 viewBox="0 0 666.7 666.7" style="enable-background:new 0 0 666.7 666.7;" xml:space="preserve">
<style type="text/css">
	.st0{fill:#6ED7D3;}
</style>
<path class="st0" d="M502.2,9.1c14.4-6,29.9-9.1,45.5-9.1c15.6,0,31.1,3.1,45.5,9.1c14.4,6,27.5,14.7,38.6,25.8
	c11,11,19.8,24.2,25.8,38.6c6,14.4,9,29.9,9,45.5s-3.1,31.1-9,45.5c-6,14.4-14.7,27.5-25.8,38.6l-17.3,17.3L446.4,52.1l17.3-17.3
	C474.7,23.8,487.8,15,502.2,9.1z"/>
<path class="st0" d="M399.2,99.2L55.2,443.3c-4.1,4.1-7.1,9.2-8.6,14.8L1.2,624.6c-3.1,11.5,0.1,23.9,8.6,32.3
	c8.5,8.5,20.8,11.7,32.3,8.6l166.4-45.4c5.6-1.5,10.7-4.5,14.8-8.6l344.1-344.1L399.2,99.2z"/>
</svg>
