<?xml version="1.0" encoding="utf-8"?>
<!-- Generator: Adobe Illustrator 25.4.1, SVG Export Plug-In . SVG Version: 6.00 Build 0)  -->
<svg version="1.1"
	 id="Capa_1" xmlns:inkscape="http://www.inkscape.org/namespaces/inkscape" xmlns:sodipodi="http://sodipodi.sourceforge.net/DTD/sodipodi-0.dtd" xmlns:svg="http://www.w3.org/2000/svg"
	 xmlns="http://www.w3.org/2000/svg" xmlns:xlink="http://www.w3.org/1999/xlink" x="0px" y="0px" viewBox="0 0 800 800"
	 style="enable-background:new 0 0 800 800;" xml:space="preserve">
<style type="text/css">
	.st0{fill:#EC4A8A;}
</style>
<sodipodi:namedview  bordercolor="#666666" borderopacity="1.0" id="namedview51" inkscape:current-layer="Capa_1" inkscape:cx="231.31429" inkscape:cy="399.54286" inkscape:deskcolor="#d1d1d1" inkscape:pagecheckerboard="0" inkscape:pageopacity="0.0" inkscape:showpageshadow="2" inkscape:window-height="2123" inkscape:window-maximized="1" inkscape:window-width="3768" inkscape:window-x="72" inkscape:window-y="0" inkscape:zoom="1.09375" pagecolor="#ffffff" showgrid="false">
	</sodipodi:namedview>
<g id="g48">
	<g id="g22">
		<path id="path18" class="st0" d="M613.5,199.6H186.5c-22.1,0-43.4,9.3-58.4,25.6c-15,16.3-22.5,38.3-20.7,60.3l37,441.1
			c1.7,19.9,10.7,38.2,25.3,51.7c14.7,13.5,33.7,20.9,53.7,20.9h353.1c19.9,0,39-7.4,53.7-20.9c14.7-13.5,23.7-31.9,25.3-51.7
			l37-441.1c1.8-22-5.7-44-20.7-60.3C656.9,209,635.7,199.6,613.5,199.6z M634.6,280.7l-37,441.1c-0.9,10.9-10.1,19.4-21,19.4H223.5
			c-11,0-20.1-8.4-21-19.4l-37-441.1c-1-12.3,8.7-22.9,21-22.9h427.1C625.9,257.8,635.6,268.4,634.6,280.7z"/>
		<path id="path20" class="st0" d="M576.5,800H223.5c-20.1,0-39.3-7.5-54.1-21.1c-14.8-13.6-23.9-32.1-25.6-52.2l-37-441.1
			c-1.9-22.2,5.7-44.4,20.8-60.8c15.1-16.4,36.6-25.8,58.9-25.8h427.1c22.3,0,43.8,9.4,58.9,25.8c15.1,16.4,22.7,38.6,20.8,60.8
			l-37,441.1c-1.7,20-10.8,38.6-25.6,52.2C615.9,792.5,596.6,800,576.5,800z M186.5,200.3c-21.9,0-43,9.3-57.9,25.4
			c-14.8,16.1-22.3,37.9-20.5,59.8l37,441.1c1.7,19.7,10.6,37.9,25.1,51.3c14.5,13.4,33.5,20.8,53.2,20.8h353.1
			c19.8,0,38.7-7.4,53.2-20.8c14.6-13.4,23.5-31.6,25.1-51.3l37-441.1c1.8-21.9-5.6-43.6-20.5-59.8c-14.8-16.1-35.9-25.4-57.9-25.4
			L186.5,200.3L186.5,200.3z M576.5,741.8H223.5c-11.2,0-20.8-8.8-21.7-20l-37-441.1c-0.5-6.1,1.6-12.1,5.7-16.6c4.1-4.5,10-7,16-7
			h427.1c6.1,0,11.9,2.6,16,7c4.1,4.5,6.2,10.5,5.7,16.6l-37,441.1C597.3,733,587.8,741.8,576.5,741.8z M186.5,258.5
			c-5.7,0-11.2,2.4-15,6.6s-5.8,9.9-5.3,15.5l37,441.1c0.9,10.5,9.8,18.7,20.4,18.7h353.1c10.5,0,19.5-8.2,20.4-18.7l37-441.1
			c0.5-5.7-1.5-11.3-5.3-15.5c-3.9-4.2-9.3-6.6-15-6.6L186.5,258.5L186.5,258.5z"/>
	</g>
	<g id="g28">
		<path id="path24" class="st0" d="M121.3,168.2h557.4c16.1,0,29.1-13,29.1-29.1s-13-29.1-29.1-29.1H573.1v-1.3V80
			c0-43.7-35.6-79.3-79.3-79.3H306.2c-43.7,0-79.3,35.6-79.3,79.3v28.7v1.3H121.3c-16.1,0-29.1,13-29.1,29.1
			C92.2,155.2,105.2,168.2,121.3,168.2z M285.1,80c0-11.7,9.5-21.1,21.1-21.1h187.5c11.7,0,21.1,9.5,21.1,21.1v28.7H285.1V80z"/>
		<path id="path26" class="st0" d="M678.7,168.9H121.3c-16.4,0-29.8-13.4-29.8-29.8c0-16.4,13.4-29.8,29.8-29.8h105V80
			c0-44.1,35.9-80,80-80h187.5c44.1,0,80,35.9,80,80v29.3h105c16.4,0,29.8,13.4,29.8,29.8C708.5,155.5,695.1,168.9,678.7,168.9z
			 M121.3,110.7c-15.7,0-28.4,12.7-28.4,28.4c0,15.7,12.7,28.4,28.4,28.4h557.4c15.7,0,28.4-12.7,28.4-28.4s-12.7-28.4-28.4-28.4
			H572.4V80c0-43.4-35.3-78.6-78.6-78.6H306.2c-43.4,0-78.6,35.3-78.6,78.6v30.7H121.3z M515.5,109.4H284.5V80
			c0-12,9.8-21.8,21.8-21.8h187.5c12,0,21.8,9.8,21.8,21.8L515.5,109.4L515.5,109.4z M285.8,108h228.4V80c0-11.3-9.2-20.4-20.4-20.4
			H306.2c-11.3,0-20.4,9.2-20.4,20.4L285.8,108L285.8,108z"/>
	</g>
	<g id="g34">
		<path id="path30" class="st0" d="M297.3,369.8c-1.1-16-14.9-28.2-30.9-27.1c-16,1.1-28.2,14.9-27.1,30.9l16.9,255.6
			c1,15.4,13.8,27.2,29,27.2c0.6,0,1.3,0,1.9-0.1c16-1.1,28.2-14.9,27.1-30.9L297.3,369.8z"/>
		<path id="path32" class="st0" d="M285.1,657.1c-15.6,0-28.6-12.2-29.7-27.8l-16.9-255.6c-0.5-7.9,2.1-15.6,7.3-21.6
			c5.2-6,12.5-9.6,20.4-10.1c16.5-1.1,30.6,11.5,31.7,27.7l16.9,255.6c1.1,16.4-11.4,30.6-27.7,31.7
			C286.4,657,285.8,657.1,285.1,657.1z M268.3,343.3c-0.6,0-1.3,0-1.9,0.1c-7.6,0.5-14.5,3.9-19.5,9.6c-5,5.7-7.5,13-7,20.6
			l16.9,255.6c1,15.5,14.5,27.5,30.2,26.5c15.6-1,27.5-14.6,26.5-30.2l-16.9-255.6C295.6,354.9,283.2,343.3,268.3,343.3z"/>
	</g>
	<g id="g40">
		<path id="path36" class="st0" d="M400,342.6c-16.1,0-29.1,13-29.1,29.1v255.6c0,16.1,13,29.1,29.1,29.1c16.1,0,29.1-13,29.1-29.1
			V371.7C429.1,355.6,416.1,342.6,400,342.6z"/>
		<path id="path38" class="st0" d="M400,657.1c-16.4,0-29.8-13.4-29.8-29.8V371.7c0-16.4,13.4-29.8,29.8-29.8s29.8,13.4,29.8,29.8
			v255.6C429.8,643.7,416.4,657.1,400,657.1z M400,343.3c-15.7,0-28.4,12.7-28.4,28.4v255.6c0,15.7,12.7,28.4,28.4,28.4
			c15.7,0,28.4-12.7,28.4-28.4V371.7C428.4,356,415.7,343.3,400,343.3z"/>
	</g>
	<g id="g46">
		<path id="path42" class="st0" d="M533.7,342.6c-16-1.1-29.9,11.1-30.9,27.1l-16.9,255.6c-1.1,16,11.1,29.9,27.1,30.9
			c0.7,0,1.3,0.1,1.9,0.1c15.2,0,28-11.8,29-27.2l16.9-255.6C561.9,357.6,549.7,343.7,533.7,342.6z"/>
		<path id="path44" class="st0" d="M514.9,657.1c-0.7,0-1.3,0-2-0.1c-16.4-1.1-28.8-15.3-27.7-31.7l16.9-255.6
			c1.1-16.3,15.2-28.8,31.7-27.7c7.9,0.5,15.2,4.1,20.4,10.1c5.2,6,7.8,13.6,7.3,21.6l-16.9,255.6
			C543.5,644.8,530.5,657.1,514.9,657.1z M531.7,343.3c-14.9,0-27.3,11.7-28.3,26.5l-16.9,255.6c-1,15.6,10.8,29.2,26.5,30.2
			c15.8,1,29.2-11,30.2-26.5l16.9-255.6c0.5-7.6-2-14.9-7-20.6c-5-5.7-11.9-9.1-19.5-9.6C533,343.3,532.4,343.3,531.7,343.3z"/>
	</g>
</g>
</svg>
