<?xml version="1.0" encoding="utf-8"?>
<!-- Generator: Adobe Illustrator 25.4.1, SVG Export Plug-In . SVG Version: 6.00 Build 0)  -->
<svg version="1.1"
	 id="svg5" xmlns:inkscape="http://www.inkscape.org/namespaces/inkscape" xmlns:sodipodi="http://sodipodi.sourceforge.net/DTD/sodipodi-0.dtd" xmlns:svg="http://www.w3.org/2000/svg"
	 xmlns="http://www.w3.org/2000/svg" xmlns:xlink="http://www.w3.org/1999/xlink" x="0px" y="0px" viewBox="0 0 22 22"
	 style="enable-background:new 0 0 22 22;" xml:space="preserve">
<style type="text/css">
	.st0{fill:none;stroke:#FFFFFF;stroke-width:1.5;stroke-linecap:round;stroke-linejoin:round;stroke-miterlimit:133.3333;}
</style>
<sodipodi:namedview  bordercolor="#666666" borderopacity="1.0" id="namedview7" inkscape:current-layer="layer1" inkscape:cx="6.9255456" inkscape:cy="10.904477" inkscape:deskcolor="#d1d1d1" inkscape:document-units="mm" inkscape:pagecheckerboard="true" inkscape:pageopacity="0.0" inkscape:showpageshadow="2" inkscape:window-height="2123" inkscape:window-maximized="1" inkscape:window-width="3768" inkscape:window-x="72" inkscape:window-y="0" inkscape:zoom="49.887767" pagecolor="#ffffff" showgrid="false">
	</sodipodi:namedview>
<g id="Interface__x2F__Settings">
	<g id="Vector">
		<path class="st0" d="M19.4,7.9L19,7.7c-0.1,0-0.1,0-0.1-0.1c-0.3-0.2-0.5-0.4-0.7-0.7c0,0,0-0.1-0.1-0.1c0-0.1,0-0.1-0.1-0.1
			c-0.2-0.3-0.2-0.6-0.2-0.9c0,0,0-0.1,0-0.1l0-0.4c0-0.7,0-1-0.1-1.3c-0.1-0.3-0.2-0.5-0.4-0.7c-0.2-0.2-0.5-0.4-1.1-0.8l-0.5-0.3
			c-0.6-0.3-0.9-0.5-1.2-0.6c-0.3-0.1-0.6-0.1-0.8,0c-0.3,0.1-0.6,0.2-1.2,0.6l0,0l-0.4,0.2c-0.1,0-0.1,0.1-0.1,0.1
			c-0.3,0.2-0.6,0.2-0.9,0.3c0,0-0.1,0-0.1,0c-0.1,0-0.1,0-0.1,0c-0.3,0-0.6-0.1-0.9-0.3c0,0-0.1,0-0.1-0.1L9.5,2.2
			C8.9,1.9,8.6,1.7,8.3,1.6C8,1.5,7.7,1.5,7.4,1.6C7.1,1.7,6.8,1.8,6.2,2.2l0,0L5.7,2.5l0,0C5.2,2.8,4.9,3,4.6,3.2
			C4.5,3.4,4.3,3.7,4.2,4C4.1,4.3,4.1,4.6,4.1,5.3l0,0.4c0,0.1,0,0.1,0,0.1c0,0.3-0.1,0.6-0.2,0.9c0,0,0,0.1-0.1,0.1
			c0,0.1,0,0.1-0.1,0.1C3.6,7.3,3.4,7.5,3.1,7.7c0,0-0.1,0-0.1,0.1L2.6,7.9C2,8.2,1.7,8.4,1.5,8.7C1.3,8.9,1.2,9.1,1.1,9.4
			C1,9.7,1,10,1,10.7l0,0.6c0,0.7,0,1,0.1,1.3c0.1,0.3,0.2,0.5,0.4,0.7c0.2,0.2,0.5,0.4,1.1,0.7L3,14.3c0.1,0,0.1,0.1,0.1,0.1
			c0.3,0.2,0.5,0.4,0.7,0.7c0,0,0,0.1,0.1,0.1c0,0.1,0.1,0.1,0.1,0.1c0.1,0.3,0.2,0.6,0.2,0.9c0,0,0,0.1,0,0.1l0,0.4
			c0,0.7,0,1,0.1,1.3c0.1,0.3,0.2,0.5,0.4,0.7c0.2,0.2,0.5,0.4,1.1,0.8l0.5,0.3c0.6,0.3,0.9,0.5,1.2,0.6c0.3,0.1,0.6,0.1,0.8,0
			c0.3-0.1,0.6-0.2,1.2-0.6l0.4-0.2c0.1,0,0.1-0.1,0.1-0.1c0.3-0.2,0.6-0.2,0.9-0.3c0,0,0.1,0,0.1,0c0.1,0,0.1,0,0.1,0
			c0.3,0,0.6,0.1,0.9,0.3c0,0,0,0,0.1,0.1l0.4,0.2c0.6,0.4,0.9,0.5,1.2,0.6c0.3,0.1,0.6,0.1,0.8,0c0.3-0.1,0.6-0.2,1.2-0.6l0.5-0.3
			c0.6-0.3,0.9-0.5,1.1-0.8c0.2-0.2,0.3-0.5,0.4-0.7c0.1-0.3,0.1-0.6,0.1-1.3l0-0.4c0-0.1,0-0.1,0-0.1c0-0.3,0.1-0.6,0.2-0.9
			c0,0,0-0.1,0.1-0.1c0-0.1,0-0.1,0.1-0.1c0.2-0.3,0.4-0.5,0.7-0.7c0,0,0.1,0,0.1-0.1l0,0l0.4-0.2c0.6-0.3,0.9-0.5,1.1-0.7
			c0.2-0.2,0.3-0.5,0.4-0.7C21,12.3,21,12,21,11.3l0-0.6c0-0.7,0-1-0.1-1.3c-0.1-0.3-0.2-0.5-0.4-0.7C20.3,8.4,20,8.3,19.4,7.9
			L19.4,7.9z"/>
		<path class="st0" d="M7,11c0,2.2,1.8,4,4,4c2.2,0,4-1.8,4-4c0-2.2-1.8-4-4-4C8.8,7,7,8.8,7,11z"/>
	</g>
</g>
</svg>
